Coordinates
version=1
nRows=12
nColumns=24
inDegrees=yes

Units are S.I. units (second, meters, Newtons, ...)
Angles are in degrees.

endheader
time	pelvis_tilt	pelvis_list	pelvis_rotation	pelvis_tx	pelvis_ty	pelvis_tz	hip_flexion_r	hip_adduction_r	hip_rotation_r	knee_angle_r	ankle_angle_r	subtalar_angle_r	mtp_angle_r	hip_flexion_l	hip_adduction_l	hip_rotation_l	knee_angle_l	ankle_angle_l	subtalar_angle_l	mtp_angle_l	lumbar_extension	lumbar_bending	lumbar_rotation
      1.00000000	      5.21067720	      0.07241346	      0.37751770	      0.59326410	      1.04489894	      0.04532330	     -3.15505818	      1.77291193	     -3.78813814	    -11.51859140	      7.92246921	     -0.00336010	      0.00000000	     18.36647658	     -2.90506968	     -4.08273889	    -57.75169343	      1.46918993	     -0.03210932	      0.00000000	    -16.33949276	      1.68524081	      0.71127608
      1.01700000	      5.27589272	      0.04394883	      0.12626833	      0.59135885	      1.04482402	      0.04641589	     -4.64637732	      1.89711818	     -3.58188687	    -10.75010634	      8.31216589	     -0.00491383	      0.00000000	     19.05005278	     -2.93245588	     -4.50243904	    -53.50603170	      1.72772631	     -0.02552478	      0.00000000	    -16.49952604	      1.56019720	      1.05129118
      1.03300000	      5.31276459	     -0.15929295	     -0.04604043	      0.58938631	      1.04432354	      0.04758138	     -6.18892693	      2.21613030	     -3.47936528	     -9.82398321	      8.61480271	      0.01291657	      0.00000000	     19.55071886	     -3.28921921	     -5.21922714	    -48.74484434	      1.68975233	     -0.01632891	      0.00000000	    -16.65971319	      1.65475666	      1.36146840
      1.05000000	      5.47925126	     -0.48462099	     -0.15479416	      0.58745487	      1.04367077	      0.04829190	     -7.85378316	      2.63400873	     -3.40674806	     -8.95290818	      8.90591631	      0.00966787	      0.00000000	     19.67216486	     -3.78822631	     -6.20713275	    -43.48507776	      1.34952886	      0.00514473	      0.00000000	    -17.01295409	      1.87160602	      1.47438666
      1.06700000	      5.31293388	     -1.05108807	     -0.44050173	      0.58535850	      1.04190949	      0.04914963	     -9.05554224	      3.26057772	     -3.08989494	     -8.27955176	      9.25310974	      0.01017000	      0.00000000	     19.98930848	     -4.54933496	     -7.47081240	    -37.98312422	      0.81517294	      0.01694896	      0.00000000	    -16.83058381	      2.37634462	      1.96916576
      1.08300000	      5.27203189	     -1.44910604	     -0.68918211	      0.58367139	      1.04005218	      0.04941621	    -10.48607036	      3.65072232	     -2.64267237	     -7.50199868	      9.60162977	      0.01501625	      0.00000000	     19.88868098	     -4.95713414	     -8.80751816	    -32.07267719	      0.05323540	      0.00474013	      0.00000000	    -16.94177861	      2.58833597	      2.15025160
      1.10000000	      5.10333436	     -2.00831370	     -0.94510521	      0.58237316	      1.03758484	      0.04990653	    -11.85381584	      4.20850957	     -2.17565007	     -6.65919523	      9.88463302	     -0.00333446	      0.00000000	     19.90372499	     -5.38745596	     -9.79507596	    -26.32449641	     -0.63469275	      0.01982366	      0.00000000	    -16.78357268	      3.05311185	      2.55435202
      1.11700000	      4.90627219	     -2.48472381	     -1.17581476	      0.58107361	      1.03478209	      0.05010384	    -13.06805161	      4.65162439	     -1.59512732	     -6.11570689	     10.32615300	     -0.00235235	      0.00000000	     19.81423398	     -5.51613251	    -10.15541598	    -20.52275453	     -1.24077467	     -0.00776928	      0.00000000	    -16.68126227	      3.41887226	      2.54238257
      1.13300000	      4.68561763	     -3.03997568	     -1.67320395	      0.57949478	      1.03160830	      0.05011074	    -14.10083149	      5.06461588	     -0.71549116	     -5.88784060	     10.89307534	     -0.05050618	      0.00000000	     19.75124380	     -5.71518096	     -9.99398518	    -15.13310964	     -1.53443631	      0.01143720	      0.00000000	    -16.56329845	      3.76057282	      3.11177968
      1.15000000	      4.79192803	     -3.54463216	     -1.88010323	      0.57870544	      1.02874488	      0.04958578	    -15.57682248	      5.43967219	     -0.13471312	     -5.54089041	     11.35216089	     -0.00951862	      0.00000000	     19.18034254	     -5.74012951	     -8.94667857	     -9.96547284	     -1.62101489	      0.00374763	      0.00000000	    -16.72381960	      4.19072820	      3.38398914
      1.16700000	      4.73645494	     -3.87831179	     -2.24259844	      0.57830794	      1.02544543	      0.04945086	    -16.92708689	      5.60083737	      0.46296948	     -5.16140844	     11.79649009	     -0.05275795	      0.00000000	     18.83780037	     -5.75776324	     -7.75288188	     -5.75125683	     -1.41669396	      0.00544750	      0.00000000	    -16.81006567	      4.19758601	      3.30480232
      1.18300000	      4.86159758	     -4.21435645	     -2.82246791	      0.57777804	      1.02259726	      0.04907831	    -18.20594870	      5.61559824	      1.18443116	     -5.30893087	     12.34295978	     -0.04041160	      0.00000000	     18.27016028	     -5.90052512	     -6.78939283	     -2.43157969	     -1.12140764	      0.01930303	      0.00000000	    -16.94683755	      4.30665480	      4.02744337
